<svg xmlns="http://www.w3.org/2000/svg" viewBox="0 0 50 42"><defs><style>.cls-1{fill:none;stroke:#4d4d4d;stroke-linecap:round;stroke-linejoin:round;stroke-width:2px;}.cls-2{fill:#fff;}</style></defs><title>cloudy</title><g id="Layer_2" data-name="Layer 2"><g id="icon"><path class="cls-1" d="M40,13a9.73,9.73,0,0,0-1.22.09A10.22,10.22,0,0,0,39,11a10,10,0,0,0-20-.44A5.93,5.93,0,0,0,15,9a6,6,0,0,0-5.6,8.14A7.15,7.15,0,0,0,8,17,7,7,0,0,0,8,31H40a9,9,0,0,0,0-18Z"/><path class="cls-2" d="M49,41V26.87a10.06,10.06,0,0,0-4.11-2.45,11,11,0,0,0-20.73-3.33A7.46,7.46,0,0,0,23,21a8,8,0,0,0-7.46,5.12A9,9,0,0,0,10.31,41Z"/><path class="cls-1" d="M42,27h-.07A8.26,8.26,0,0,0,42,26a8,8,0,0,0-15.94-.93A5,5,0,0,0,18,29s0,.06,0,.09A6.77,6.77,0,0,0,17,29a6,6,0,0,0,0,12H42a7,7,0,0,0,0-14Z"/></g></g></svg>