<svg xmlns="http://www.w3.org/2000/svg" viewBox="0 0 50 50"><defs><style>.cls-1{fill:none;stroke:#4d4d4d;stroke-linecap:round;stroke-linejoin:round;stroke-width:2px;}</style></defs><title>fog</title><g id="Layer_2" data-name="Layer 2"><g id="icon"><path class="cls-1" d="M40,13a9.73,9.73,0,0,0-1.22.09A10.22,10.22,0,0,0,39,11a10,10,0,0,0-20-.44A5.93,5.93,0,0,0,15,9a6,6,0,0,0-5.6,8.14A7.15,7.15,0,0,0,8,17,7,7,0,0,0,8,31H40a9,9,0,0,0,0-18Z"/><line class="cls-1" x1="4" y1="43" x2="48" y2="43"/><line class="cls-1" x1="2" y1="37" x2="14" y2="37"/><line class="cls-1" x1="18" y1="37" x2="46" y2="37"/><line class="cls-1" x1="2" y1="49" x2="27" y2="49"/><line class="cls-1" x1="31" y1="49" x2="46" y2="49"/></g></g></svg>