<svg xmlns="http://www.w3.org/2000/svg" viewBox="0 0 54 48"><defs><style>.cls-1{fill:none;stroke:#4d4d4d;stroke-linecap:round;stroke-linejoin:round;stroke-width:2px;}.cls-2{fill:#fff;}</style></defs><title>partly-cloudy-night</title><g id="Layer_2" data-name="Layer 2"><g id="icon"><path class="cls-1" d="M44,19.57a9.52,9.52,0,0,1,.65-18.28,12,12,0,0,0-13.3,17.19A12,12,0,0,0,53,17.79,9.42,9.42,0,0,1,44,19.57Z"/><path class="cls-2" d="M1,47H47.91A12,12,0,0,0,42,26.16a13,13,0,0,0-25-3.95A8.82,8.82,0,0,0,15,22a9,9,0,0,0-9,8.19,10.06,10.06,0,0,0-5,2.68Z"/><path class="cls-1" d="M40,29a9.73,9.73,0,0,0-1.22.09A10.22,10.22,0,0,0,39,27a10,10,0,0,0-20-.44A5.93,5.93,0,0,0,15,25a6,6,0,0,0-6,6,6.11,6.11,0,0,0,.4,2.14A7.15,7.15,0,0,0,8,33,7,7,0,0,0,8,47H40a9,9,0,0,0,0-18Z"/></g></g></svg>