<svg xmlns="http://www.w3.org/2000/svg" viewBox="0 0 48 48"><defs><style>.cls-1,.cls-2,.cls-4{fill:none;stroke:#4d4d4d;stroke-width:2px;}.cls-1,.cls-2{stroke-miterlimit:10;}.cls-2,.cls-4{stroke-linecap:round;}.cls-3{fill:#fff;}.cls-4{stroke-linejoin:round;}</style></defs><title>partly-cloudy-day</title><g id="Layer_2" data-name="Layer 2"><g id="icon"><circle class="cls-1" cx="23" cy="23" r="12"/><line class="cls-2" x1="40" y1="23" x2="45" y2="23"/><line class="cls-2" x1="1" y1="23" x2="6" y2="23"/><line class="cls-2" x1="23" y1="1" x2="23" y2="6"/><line class="cls-2" x1="37.72" y1="14.5" x2="42.05" y2="12"/><line class="cls-2" x1="3.95" y1="34" x2="8.28" y2="31.5"/><line class="cls-2" x1="12" y1="3.95" x2="14.5" y2="8.28"/><line class="cls-2" x1="31.5" y1="8.28" x2="34" y2="3.95"/><line class="cls-2" x1="12" y1="42.05" x2="14.5" y2="37.72"/><line class="cls-2" x1="3.95" y1="12" x2="8.28" y2="14.5"/><path class="cls-3" d="M47,47V35.77a8.16,8.16,0,0,0-2.12-1.23A9,9,0,0,0,28.52,31a6.45,6.45,0,0,0-6.05,4.07,7.49,7.49,0,0,0-5,11.93Z"/><path class="cls-4" d="M42,37h-.09A6.77,6.77,0,0,0,42,36a6,6,0,0,0-11.79-1.54A3.55,3.55,0,0,0,28.5,34,3.5,3.5,0,0,0,25,37.5a3.59,3.59,0,0,0,.1.81A4.49,4.49,0,1,0,23.5,47H42a5,5,0,0,0,0-10Z"/></g></g></svg>