<svg xmlns="http://www.w3.org/2000/svg" viewBox="0 0 50 49"><defs><style>.cls-1{fill:none;stroke:#4d4d4d;stroke-linecap:round;stroke-linejoin:round;stroke-width:2px;}</style></defs><title>sleet</title><g id="Layer_2" data-name="Layer 2"><g id="icon"><path class="cls-1" d="M40,13a9.73,9.73,0,0,0-1.22.09A10.22,10.22,0,0,0,39,11a10,10,0,0,0-20-.44A5.93,5.93,0,0,0,15,9a6,6,0,0,0-5.6,8.14A7.15,7.15,0,0,0,8,17,7,7,0,0,0,8,31H40a9,9,0,0,0,0-18Z"/><line class="cls-1" x1="24" y1="36" x2="18" y2="48"/><line class="cls-1" x1="15" y1="36" x2="12" y2="42"/><line class="cls-1" x1="33" y1="36" x2="33" y2="43"/><line class="cls-1" x1="30" y1="37.5" x2="36" y2="41.5"/><line class="cls-1" x1="30" y1="41.5" x2="36" y2="37.5"/></g></g></svg>