<svg xmlns="http://www.w3.org/2000/svg" viewBox="0 0 50 50"><defs><style>.cls-1{fill:none;stroke:#4d4d4d;stroke-linecap:round;stroke-linejoin:round;stroke-width:2px;}</style></defs><title>snow</title><g id="Layer_2" data-name="Layer 2"><g id="icon"><path class="cls-1" d="M40,13a9.73,9.73,0,0,0-1.22.09A10.22,10.22,0,0,0,39,11a10,10,0,0,0-20-.44A5.93,5.93,0,0,0,15,9a6,6,0,0,0-5.6,8.14A7.15,7.15,0,0,0,8,17,7,7,0,0,0,8,31H40a9,9,0,0,0,0-18Z"/><line class="cls-1" x1="40" y1="35" x2="40" y2="42"/><line class="cls-1" x1="37" y1="36.5" x2="43" y2="40.5"/><line class="cls-1" x1="37" y1="40.5" x2="43" y2="36.5"/><line class="cls-1" x1="8" y1="35" x2="8" y2="42"/><line class="cls-1" x1="5" y1="36.5" x2="11" y2="40.5"/><line class="cls-1" x1="5" y1="40.5" x2="11" y2="36.5"/><line class="cls-1" x1="16" y1="42" x2="16" y2="49"/><line class="cls-1" x1="13" y1="43.5" x2="19" y2="47.5"/><line class="cls-1" x1="13" y1="47.5" x2="19" y2="43.5"/><line class="cls-1" x1="32" y1="42" x2="32" y2="49"/><line class="cls-1" x1="29" y1="43.5" x2="35" y2="47.5"/><line class="cls-1" x1="29" y1="47.5" x2="35" y2="43.5"/><line class="cls-1" x1="24" y1="35" x2="24" y2="42"/><line class="cls-1" x1="21" y1="36.5" x2="27" y2="40.5"/><line class="cls-1" x1="21" y1="40.5" x2="27" y2="36.5"/></g></g></svg>